# This file uses centimeters as units for non-parametric coordinates.

v 0.444449 0.383379 0.010222
v 0.444449 0.345414 -0.156121
v 0.444449 0.239034 -0.289518
v 0.444449 0.085310 -0.363547
v 0.444449 -0.085310 -0.363547
v 0.444449 -0.239034 -0.289518
v 0.444449 -0.345414 -0.156121
v 0.444449 -0.383379 0.010222
v 0.444449 -0.345414 0.176564
v 0.444449 -0.239034 0.309959
v 0.444449 -0.085310 0.383990
v 0.444449 0.085310 0.383990
v 0.444449 0.239034 0.309959
v 0.444449 0.345414 0.176564
v -0.444449 0.383379 0.010222
v -0.444449 0.345414 -0.156121
v -0.444449 0.239034 -0.289518
v -0.444449 0.085310 -0.363547
v -0.444449 -0.085310 -0.363547
v -0.444449 -0.239034 -0.289518
v -0.444449 -0.345414 -0.156121
v -0.444449 -0.383379 0.010222
v -0.444449 -0.345414 0.176564
v -0.444449 -0.239034 0.309959
v -0.444449 -0.085310 0.383990
v -0.444449 0.085310 0.383990
v -0.444449 0.239034 0.309959
v -0.444449 0.345414 0.176564
v -0.444449 0.766761 0.010222
v -0.444449 0.690827 -0.322463
v -0.444449 0.478068 -0.589257
v -0.444449 0.170620 -0.737315
v -0.444449 -0.170620 -0.737315
v -0.444449 -0.478068 -0.589255
v -0.444449 -0.690827 -0.322463
v -0.444449 -0.766761 0.010222
v -0.444449 -0.690827 0.342907
v -0.444449 -0.478066 0.609699
v -0.444449 -0.170620 0.757756
v -0.444449 0.170620 0.757756
v -0.444449 0.478068 0.609699
v -0.444449 0.690827 0.342907
v 0.444449 0.766761 0.010222
v 0.444449 0.690827 -0.322463
v 0.444449 0.478068 -0.589257
v 0.444449 0.170620 -0.737315
v 0.444449 -0.170620 -0.737315
v 0.444449 -0.478068 -0.589255
v 0.444449 -0.690827 -0.322463
v 0.444449 -0.766761 0.010222
v 0.444449 -0.690827 0.342907
v 0.444449 -0.478066 0.609699
v 0.444449 -0.170620 0.757756
v 0.444449 0.170620 0.757756
v 0.444449 0.478068 0.609699
v 0.444449 0.690827 0.342907
v -0.444449 0.852215 -0.451167
v -0.444449 0.639455 -0.717959
v 0.444449 0.852215 -0.451167
v 0.444449 0.639455 -0.717959
v -0.444449 0.170620 -0.943739
v -0.444449 -0.170620 -0.943739
v 0.444449 0.170620 -0.943739
v 0.444449 -0.170620 -0.943739
v -0.444449 -0.639455 -0.717959
v -0.444449 -0.852215 -0.451165
v 0.444449 -0.639455 -0.717959
v 0.444449 -0.852215 -0.451165
v -0.444449 -0.968009 0.056154
v -0.444449 -0.892075 0.388839
v 0.444449 -0.968009 0.056154
v 0.444449 -0.892075 0.388839
v -0.444449 -0.567630 0.795679
v -0.444449 -0.260184 0.943739
v 0.444449 -0.567630 0.795679
v 0.444449 -0.260184 0.943739
v -0.444449 0.260184 0.943739
v -0.444449 0.567630 0.795679
v 0.444449 0.260184 0.943739
v 0.444449 0.567630 0.795679
v -0.444449 0.892075 0.388839
v -0.444449 0.968009 0.056154
v 0.444449 0.892075 0.388839
v 0.444449 0.968009 0.056154
vt 0.071429 1.000000
vt 0.000000 1.000000
vt 0.000000 0.750000
vt 0.071429 0.750000
vt 0.142857 1.000000
vt 0.142857 0.750000
vt 0.214286 1.000000
vt 0.214286 0.750000
vt 0.285714 1.000000
vt 0.285714 0.750000
vt 0.357143 1.000000
vt 0.357143 0.750000
vt 0.428571 1.000000
vt 0.428571 0.750000
vt 0.500000 1.000000
vt 0.500000 0.750000
vt 0.571429 1.000000
vt 0.571429 0.750000
vt 0.642857 1.000000
vt 0.642857 0.750000
vt 0.714286 1.000000
vt 0.714286 0.750000
vt 0.785714 1.000000
vt 0.785714 0.750000
vt 0.857143 1.000000
vt 0.857143 0.750000
vt 0.928572 1.000000
vt 0.928572 0.750000
vt 1.000000 1.000000
vt 1.000000 0.750000
vt 0.000000 0.500000
vt 0.071429 0.500000
vt 0.142857 0.500000
vt 0.214286 0.500000
vt 0.285714 0.500000
vt 0.357143 0.500000
vt 0.428571 0.500000
vt 0.500000 0.500000
vt 0.571429 0.500000
vt 0.642857 0.500000
vt 0.714286 0.500000
vt 0.785714 0.500000
vt 0.857143 0.500000
vt 0.928572 0.500000
vt 1.000000 0.500000
vt 0.000000 0.250000
vt 0.071429 0.250000
vt 0.142857 0.500000
vt 0.071429 0.500000
vt 0.071429 0.250000
vt 0.142857 0.250000
vt 0.142857 0.250000
vt 0.214286 0.250000
vt 0.285714 0.500000
vt 0.214286 0.500000
vt 0.214286 0.250000
vt 0.285714 0.250000
vt 0.285714 0.250000
vt 0.357143 0.250000
vt 0.428571 0.500000
vt 0.357143 0.500000
vt 0.357143 0.250000
vt 0.428571 0.250000
vt 0.428571 0.250000
vt 0.500000 0.250000
vt 0.571429 0.500000
vt 0.500000 0.500000
vt 0.500000 0.250000
vt 0.571429 0.250000
vt 0.571429 0.250000
vt 0.642857 0.250000
vt 0.714286 0.500000
vt 0.642857 0.500000
vt 0.642857 0.250000
vt 0.714286 0.250000
vt 0.714286 0.250000
vt 0.785714 0.250000
vt 0.857143 0.500000
vt 0.785714 0.500000
vt 0.785714 0.250000
vt 0.857143 0.250000
vt 0.857143 0.250000
vt 0.928572 0.250000
vt 1.000000 0.500000
vt 0.928572 0.500000
vt 0.928572 0.250000
vt 1.000000 0.250000
vt 0.000000 0.000000
vt 0.071429 0.000000
vt 0.142857 0.000000
vt 0.214286 0.000000
vt 0.285714 0.000000
vt 0.357143 0.000000
vt 0.428571 0.000000
vt 0.500000 0.000000
vt 0.571429 0.000000
vt 0.642857 0.000000
vt 0.714286 0.000000
vt 0.785714 0.000000
vt 0.857143 0.000000
vt 0.928572 0.000000
vt 1.000000 0.250000
vt 1.000000 0.000000
vn 0.000000 -0.900969 0.433884
vn 0.000000 -1.000000 0.000000
vn 0.000000 -0.900969 0.433884
vn 0.000000 -1.000000 0.000000
vn 0.000000 -0.623490 0.781832
vn 0.000000 -0.900969 0.433884
vn 0.000000 -0.623490 0.781832
vn 0.000000 -0.900969 0.433884
vn 0.000000 -0.222521 0.974928
vn 0.000000 -0.623490 0.781832
vn 0.000000 -0.222521 0.974928
vn 0.000000 -0.623490 0.781832
vn 0.000000 0.222521 0.974928
vn 0.000000 -0.222521 0.974928
vn 0.000000 0.222521 0.974928
vn 0.000000 -0.222521 0.974928
vn 0.000000 0.623490 0.781831
vn 0.000000 0.222521 0.974928
vn 0.000000 0.623490 0.781831
vn 0.000000 0.222521 0.974928
vn 0.000000 0.900969 0.433884
vn 0.000000 0.623490 0.781831
vn 0.000000 0.900969 0.433884
vn 0.000000 0.623490 0.781831
vn 0.000000 1.000000 0.000000
vn 0.000000 0.900969 0.433884
vn 0.000000 1.000000 0.000000
vn 0.000000 0.900969 0.433884
vn 0.000000 0.900969 -0.433884
vn 0.000000 1.000000 0.000000
vn 0.000000 0.900969 -0.433884
vn 0.000000 1.000000 0.000000
vn 0.000000 0.623490 -0.781832
vn 0.000000 0.900969 -0.433884
vn 0.000000 0.623490 -0.781832
vn 0.000000 0.900969 -0.433884
vn 0.000000 0.222521 -0.974928
vn 0.000000 0.623490 -0.781832
vn 0.000000 0.222521 -0.974928
vn 0.000000 0.623490 -0.781832
vn 0.000000 -0.222521 -0.974928
vn 0.000000 0.222521 -0.974928
vn 0.000000 -0.222521 -0.974928
vn 0.000000 0.222521 -0.974928
vn 0.000000 -0.623490 -0.781831
vn 0.000000 -0.222521 -0.974928
vn 0.000000 -0.623490 -0.781831
vn 0.000000 -0.222521 -0.974928
vn 0.000000 -0.900969 -0.433884
vn 0.000000 -0.623490 -0.781831
vn 0.000000 -0.900969 -0.433884
vn 0.000000 -0.623490 -0.781831
vn 0.000000 -1.000000 0.000000
vn 0.000000 -0.900969 -0.433884
vn 0.000000 -1.000000 0.000000
vn 0.000000 -0.900969 -0.433884
vn -1.000000 0.000000 0.000000
vn -1.000000 0.000000 0.000000
vn -1.000000 0.000000 0.000000
vn -1.000000 0.000000 0.000000
vn -1.000000 0.000000 0.000000
vn -1.000000 0.000000 0.000000
vn -1.000000 0.000000 0.000000
vn -1.000000 0.000000 0.000000
vn -1.000000 0.000000 0.000000
vn -1.000000 0.000000 0.000000
vn -1.000000 0.000000 0.000000
vn -1.000000 0.000000 0.000000
vn -1.000000 0.000000 -0.000000
vn -1.000000 0.000000 0.000000
vn -1.000000 0.000000 -0.000000
vn -1.000000 0.000000 0.000000
vn -1.000000 0.000000 0.000000
vn -1.000000 0.000000 -0.000000
vn -1.000000 0.000000 0.000000
vn -1.000000 0.000000 -0.000000
vn -1.000000 0.000000 0.000000
vn -1.000000 0.000000 0.000000
vn -1.000000 0.000000 0.000000
vn -1.000000 0.000000 0.000000
vn -1.000000 0.000000 -0.000000
vn -1.000000 0.000000 0.000000
vn -1.000000 0.000000 -0.000000
vn -1.000000 0.000000 0.000000
vn -1.000000 0.000000 0.000000
vn -1.000000 0.000000 -0.000000
vn -1.000000 0.000000 0.000000
vn -1.000000 0.000000 -0.000000
vn -1.000000 0.000000 0.000000
vn -1.000000 0.000000 0.000000
vn -1.000000 0.000000 -0.000000
vn -1.000000 0.000000 0.000000
vn -1.000000 0.000000 -0.000000
vn -1.000000 0.000000 0.000000
vn -1.000000 0.000000 -0.000000
vn -1.000000 0.000000 -0.000000
vn -1.000000 0.000000 -0.000000
vn -1.000000 0.000000 -0.000000
vn -1.000000 0.000000 -0.000000
vn -1.000000 0.000000 -0.000000
vn -1.000000 0.000000 0.000000
vn -1.000000 0.000000 -0.000000
vn -1.000000 0.000000 0.000000
vn -1.000000 0.000000 -0.000000
vn -1.000000 0.000000 0.000000
vn -1.000000 0.000000 0.000000
vn -1.000000 0.000000 0.000000
vn -1.000000 0.000000 0.000000
vn -1.000000 0.000000 0.000000
vn -1.000000 0.000000 0.000000
vn -1.000000 0.000000 0.000000
vn -1.000000 0.000000 0.000000
vn 0.000000 0.974928 -0.222521
vn 0.000000 0.974928 -0.222521
vn 0.000000 0.974928 -0.222521
vn 0.000000 0.974928 -0.222521
vn 0.000000 0.781831 -0.623490
vn 0.000000 0.781831 -0.623490
vn 0.000000 0.781831 -0.623490
vn 0.000000 0.781831 -0.623490
vn 0.000000 0.433884 -0.900969
vn 0.000000 0.433884 -0.900969
vn 0.000000 0.433884 -0.900969
vn 0.000000 0.433884 -0.900969
vn 0.000000 -0.000001 -1.000000
vn 0.000000 -0.000001 -1.000000
vn 0.000000 -0.000001 -1.000000
vn 0.000000 -0.000001 -1.000000
vn 0.000000 -0.433884 -0.900969
vn 0.000000 -0.433884 -0.900969
vn 0.000000 -0.433884 -0.900969
vn 0.000000 -0.433884 -0.900969
vn 0.000000 -0.781832 -0.623490
vn 0.000000 -0.781832 -0.623490
vn 0.000000 -0.781832 -0.623490
vn 0.000000 -0.781832 -0.623490
vn 0.000000 -0.974928 -0.222521
vn 0.000000 -0.974928 -0.222521
vn 0.000000 -0.974928 -0.222521
vn 0.000000 -0.974928 -0.222521
vn 0.000000 -0.974928 0.222521
vn 0.000000 -0.974928 0.222521
vn 0.000000 -0.974928 0.222521
vn 0.000000 -0.974928 0.222521
vn 0.000000 -0.781831 0.623490
vn 0.000000 -0.781831 0.623490
vn 0.000000 -0.781831 0.623490
vn 0.000000 -0.781831 0.623490
vn 0.000000 -0.433884 0.900969
vn 0.000000 -0.433884 0.900969
vn 0.000000 -0.433884 0.900969
vn 0.000000 -0.433884 0.900969
vn 0.000000 0.000000 1.000000
vn 0.000000 0.000000 1.000000
vn 0.000000 0.000000 1.000000
vn 0.000000 0.000000 1.000000
vn 0.000000 0.433884 0.900969
vn 0.000000 0.433884 0.900969
vn 0.000000 0.433884 0.900969
vn 0.000000 0.433884 0.900969
vn 0.000000 0.781832 0.623490
vn 0.000000 0.781832 0.623490
vn 0.000000 0.781832 0.623490
vn 0.000000 0.781832 0.623490
vn 0.000000 0.974928 0.222521
vn 0.000000 0.974928 0.222521
vn 0.000000 0.974928 0.222521
vn 0.000000 0.974928 0.222521
vn 1.000000 0.000000 0.000000
vn 1.000000 -0.000000 0.000000
vn 1.000000 0.000000 0.000000
vn 1.000000 -0.000000 0.000000
vn 1.000000 0.000000 0.000000
vn 1.000000 0.000000 0.000000
vn 1.000000 0.000000 0.000000
vn 1.000000 0.000000 0.000000
vn 1.000000 0.000000 0.000000
vn 1.000000 0.000000 0.000000
vn 1.000000 0.000000 0.000000
vn 1.000000 0.000000 0.000000
vn 1.000000 -0.000000 0.000000
vn 1.000000 0.000000 0.000000
vn 1.000000 -0.000000 0.000000
vn 1.000000 0.000000 0.000000
vn 1.000000 -0.000000 0.000000
vn 1.000000 -0.000000 0.000000
vn 1.000000 -0.000000 0.000000
vn 1.000000 -0.000000 0.000000
vn 1.000000 -0.000000 0.000000
vn 1.000000 -0.000000 0.000000
vn 1.000000 -0.000000 0.000000
vn 1.000000 -0.000000 0.000000
vn 1.000000 -0.000000 0.000000
vn 1.000000 -0.000000 0.000000
vn 1.000000 -0.000000 0.000000
vn 1.000000 -0.000000 0.000000
vn 1.000000 -0.000000 0.000000
vn 1.000000 -0.000000 0.000000
vn 1.000000 -0.000000 0.000000
vn 1.000000 -0.000000 0.000000
vn 1.000000 0.000000 0.000000
vn 1.000000 -0.000000 0.000000
vn 1.000000 0.000000 0.000000
vn 1.000000 -0.000000 0.000000
vn 1.000000 0.000000 0.000000
vn 1.000000 0.000000 0.000000
vn 1.000000 0.000000 0.000000
vn 1.000000 0.000000 0.000000
vn 1.000000 0.000000 0.000000
vn 1.000000 0.000000 0.000000
vn 1.000000 -0.000000 0.000000
vn 1.000000 0.000000 0.000000
vn 1.000000 0.000000 0.000000
vn 1.000000 0.000000 0.000000
vn 1.000000 -0.000000 0.000000
vn 1.000000 -0.000000 0.000000
vn 1.000000 -0.000000 0.000000
vn 1.000000 0.000000 0.000000
vn 1.000000 -0.000000 0.000000
vn 1.000000 -0.000000 0.000000
vn 1.000000 -0.000000 0.000000
vn 1.000000 -0.000000 0.000000
vn 1.000000 -0.000000 0.000000
vn 1.000000 -0.000000 0.000000
vn -1.000000 0.000000 0.000000
vn -1.000000 0.000000 0.000000
vn -1.000000 0.000000 0.000000
vn -1.000000 0.000000 0.000000
vn 0.000000 0.623490 0.781832
vn 0.000000 0.623490 0.781832
vn 0.000000 0.623490 0.781832
vn 0.000000 0.623490 0.781832
vn 1.000000 0.000000 0.000000
vn 1.000000 0.000000 0.000000
vn 1.000000 -0.000000 0.000000
vn 1.000000 -0.000000 0.000000
vn 0.000000 -0.623490 -0.781831
vn 0.000000 -0.623490 -0.781831
vn 0.000000 -0.623490 -0.781831
vn 0.000000 -0.623490 -0.781831
vn -1.000000 0.000000 -0.000000
vn -1.000000 0.000000 0.000000
vn -1.000000 0.000000 0.000000
vn -1.000000 0.000000 0.000000
vn 0.000000 1.000000 0.000000
vn 0.000000 1.000000 0.000000
vn 0.000000 1.000000 0.000000
vn 0.000000 1.000000 0.000000
vn 1.000000 0.000000 0.000000
vn 1.000000 -0.000000 0.000000
vn 1.000000 0.000000 0.000000
vn 1.000000 0.000000 0.000000
vn 0.000000 -1.000000 0.000000
vn 0.000000 -1.000000 0.000000
vn 0.000000 -1.000000 0.000000
vn 0.000000 -1.000000 0.000000
vn -1.000000 0.000000 0.000000
vn -1.000000 0.000000 0.000000
vn -1.000000 0.000000 0.000000
vn -1.000000 0.000000 0.000000
vn 0.000000 0.623490 -0.781831
vn 0.000000 0.623490 -0.781831
vn 0.000000 0.623490 -0.781831
vn 0.000000 0.623490 -0.781831
vn 1.000000 -0.000000 0.000000
vn 1.000000 -0.000000 0.000000
vn 1.000000 -0.000000 0.000000
vn 1.000000 -0.000000 0.000000
vn 0.000000 -0.623490 0.781832
vn 0.000000 -0.623490 0.781832
vn 0.000000 -0.623490 0.781832
vn 0.000000 -0.623490 0.781832
vn -1.000000 0.000000 0.000000
vn -1.000000 0.000000 -0.000000
vn -1.000000 0.000000 0.000000
vn -1.000000 0.000000 0.000000
vn 0.000000 -0.222521 -0.974928
vn 0.000000 -0.222521 -0.974928
vn 0.000000 -0.222521 -0.974928
vn 0.000000 -0.222521 -0.974928
vn 1.000000 -0.000000 0.000000
vn 1.000000 -0.000000 0.000000
vn 1.000000 -0.000000 0.000000
vn 1.000000 -0.000000 0.000000
vn 0.000000 0.222521 0.974928
vn 0.000000 0.222521 0.974928
vn 0.000000 0.222521 0.974928
vn 0.000000 0.222521 0.974928
vn -1.000000 0.000000 -0.000000
vn -1.000000 0.000000 -0.000000
vn -1.000000 0.000000 -0.000000
vn -1.000000 0.000000 -0.000000
vn 0.000000 -0.900969 -0.433884
vn 0.000000 -0.900969 -0.433884
vn 0.000000 -0.900969 -0.433884
vn 0.000000 -0.900969 -0.433884
vn 1.000000 0.000000 0.000000
vn 1.000000 0.000000 0.000000
vn 1.000000 0.000000 0.000000
vn 1.000000 0.000000 0.000000
vn 0.000000 0.900969 0.433883
vn 0.000000 0.900969 0.433883
vn 0.000000 0.900969 0.433883
vn 0.000000 0.900969 0.433883
vn -1.000000 0.000000 0.000000
vn -1.000000 0.000000 -0.000000
vn -1.000000 0.000000 -0.000000
vn -1.000000 0.000000 -0.000000
vn 0.000000 -0.900969 0.433884
vn 0.000000 -0.900969 0.433884
vn 0.000000 -0.900969 0.433884
vn 0.000000 -0.900969 0.433884
vn 1.000000 0.000000 0.000000
vn 1.000000 0.000000 0.000000
vn 1.000000 0.000000 0.000000
vn 1.000000 0.000000 0.000000
vn 0.000000 0.900969 -0.433884
vn 0.000000 0.900969 -0.433884
vn 0.000000 0.900969 -0.433884
vn 0.000000 0.900969 -0.433884
vn -1.000000 0.000000 0.000000
vn -1.000000 0.000000 0.000000
vn -1.000000 0.000000 0.000000
vn -1.000000 0.000000 0.000000
vn 0.000000 -0.222521 0.974928
vn 0.000000 -0.222521 0.974928
vn 0.000000 -0.222521 0.974928
vn 0.000000 -0.222521 0.974928
vn 1.000000 -0.000000 0.000000
vn 1.000000 -0.000000 0.000000
vn 1.000000 -0.000000 0.000000
vn 1.000000 -0.000000 0.000000
vn 0.000000 0.222521 -0.974928
vn 0.000000 0.222521 -0.974928
vn 0.000000 0.222521 -0.974928
vn 0.000000 0.222521 -0.974928
s 1
f 2/1/1 1/2/2 16/4/3
f 16/4/3 1/2/2 15/3/4
s 2
f 3/5/5 2/1/6 17/6/7
f 17/6/7 2/1/6 16/4/8
s 3
f 4/7/9 3/5/10 18/8/11
f 18/8/11 3/5/10 17/6/12
s 4
f 5/9/13 4/7/14 19/10/15
f 19/10/15 4/7/14 18/8/16
s 5
f 6/11/17 5/9/18 20/12/19
f 20/12/19 5/9/18 19/10/20
s 6
f 7/13/21 6/11/22 21/14/23
f 21/14/23 6/11/22 20/12/24
s 7
f 8/15/25 7/13/26 22/16/27
f 22/16/27 7/13/26 21/14/28
s 8
f 9/17/29 8/15/30 23/18/31
f 23/18/31 8/15/30 22/16/32
s 9
f 10/19/33 9/17/34 24/20/35
f 24/20/35 9/17/34 23/18/36
s 10
f 11/21/37 10/19/38 25/22/39
f 25/22/39 10/19/38 24/20/40
s 11
f 12/23/41 11/21/42 26/24/43
f 26/24/43 11/21/42 25/22/44
s 12
f 13/25/45 12/23/46 27/26/47
f 27/26/47 12/23/46 26/24/48
s 13
f 14/27/49 13/25/50 28/28/51
f 28/28/51 13/25/50 27/26/52
s 14
f 1/29/53 14/27/54 15/30/55
f 15/30/55 14/27/54 28/28/56
s 15
f 16/4/57 15/3/58 30/32/59
f 30/32/59 15/3/58 29/31/60
s 16
f 17/6/61 16/4/62 31/33/63
f 31/33/63 16/4/62 30/32/64
s 17
f 18/8/65 17/6/66 32/34/67
f 32/34/67 17/6/66 31/33/68
s 18
f 19/10/69 18/8/70 33/35/71
f 33/35/71 18/8/70 32/34/72
s 19
f 20/12/73 19/10/74 34/36/75
f 34/36/75 19/10/74 33/35/76
s 20
f 21/14/77 20/12/78 35/37/79
f 35/37/79 20/12/78 34/36/80
s 21
f 22/16/81 21/14/82 36/38/83
f 36/38/83 21/14/82 35/37/84
s 22
f 23/18/85 22/16/86 37/39/87
f 37/39/87 22/16/86 36/38/88
s 23
f 24/20/89 23/18/90 38/40/91
f 38/40/91 23/18/90 37/39/92
s 24
f 25/22/93 24/20/94 39/41/95
f 39/41/95 24/20/94 38/40/96
s 25
f 26/24/97 25/22/98 40/42/99
f 40/42/99 25/22/98 39/41/100
s 26
f 27/26/101 26/24/102 41/43/103
f 41/43/103 26/24/102 40/42/104
s 27
f 28/28/105 27/26/106 42/44/107
f 42/44/107 27/26/106 41/43/108
s 28
f 15/30/109 28/28/110 29/45/111
f 29/45/111 28/28/110 42/44/112
s 29
f 30/32/113 29/31/114 44/47/115
f 44/47/115 29/31/114 43/46/116
s 30
f 58/48/117 57/49/118 60/51/119
f 60/51/119 57/49/118 59/50/120
s 31
f 32/34/121 31/33/122 46/53/123
f 46/53/123 31/33/122 45/52/124
s 32
f 62/54/125 61/55/126 64/57/127
f 64/57/127 61/55/126 63/56/128
s 33
f 34/36/129 33/35/130 48/59/131
f 48/59/131 33/35/130 47/58/132
s 34
f 66/60/133 65/61/134 68/63/135
f 68/63/135 65/61/134 67/62/136
s 35
f 36/38/137 35/37/138 50/65/139
f 50/65/139 35/37/138 49/64/140
s 36
f 70/66/141 69/67/142 72/69/143
f 72/69/143 69/67/142 71/68/144
s 37
f 38/40/145 37/39/146 52/71/147
f 52/71/147 37/39/146 51/70/148
s 38
f 74/72/149 73/73/150 76/75/151
f 76/75/151 73/73/150 75/74/152
s 39
f 40/42/153 39/41/154 54/77/155
f 54/77/155 39/41/154 53/76/156
s 40
f 78/78/157 77/79/158 80/81/159
f 80/81/159 77/79/158 79/80/160
s 41
f 42/44/161 41/43/162 56/83/163
f 56/83/163 41/43/162 55/82/164
s 42
f 82/84/165 81/85/166 84/87/167
f 84/87/167 81/85/166 83/86/168
s 43
f 44/47/169 43/46/170 2/89/171
f 2/89/171 43/46/170 1/88/172
s 44
f 45/52/173 44/47/174 3/90/175
f 3/90/175 44/47/174 2/89/176
s 45
f 46/53/177 45/52/178 4/91/179
f 4/91/179 45/52/178 3/90/180
s 46
f 47/58/181 46/53/182 5/92/183
f 5/92/183 46/53/182 4/91/184
s 47
f 48/59/185 47/58/186 6/93/187
f 6/93/187 47/58/186 5/92/188
s 48
f 49/64/189 48/59/190 7/94/191
f 7/94/191 48/59/190 6/93/192
s 49
f 50/65/193 49/64/194 8/95/195
f 8/95/195 49/64/194 7/94/196
s 50
f 51/70/197 50/65/198 9/96/199
f 9/96/199 50/65/198 8/95/200
s 51
f 52/71/201 51/70/202 10/97/203
f 10/97/203 51/70/202 9/96/204
s 52
f 53/76/205 52/71/206 11/98/207
f 11/98/207 52/71/206 10/97/208
s 53
f 54/77/209 53/76/210 12/99/211
f 12/99/211 53/76/210 11/98/212
s 54
f 55/82/213 54/77/214 13/100/215
f 13/100/215 54/77/214 12/99/216
s 55
f 56/83/217 55/82/218 14/101/219
f 14/101/219 55/82/218 13/100/220
s 56
f 43/102/221 56/83/222 1/103/223
f 1/103/223 56/83/222 14/101/224
s 57
f 31/33/225 30/32/226 58/48/227
f 58/48/227 30/32/226 57/49/228
s 58
f 30/32/229 44/47/230 57/49/231
f 57/49/231 44/47/230 59/50/232
s 59
f 44/47/233 45/52/234 59/50/235
f 59/50/235 45/52/234 60/51/236
s 60
f 45/52/237 31/33/238 60/51/239
f 60/51/239 31/33/238 58/48/240
s 61
f 33/35/241 32/34/242 62/54/243
f 62/54/243 32/34/242 61/55/244
s 62
f 32/34/245 46/53/246 61/55/247
f 61/55/247 46/53/246 63/56/248
s 63
f 46/53/249 47/58/250 63/56/251
f 63/56/251 47/58/250 64/57/252
s 64
f 47/58/253 33/35/254 64/57/255
f 64/57/255 33/35/254 62/54/256
s 65
f 35/37/257 34/36/258 66/60/259
f 66/60/259 34/36/258 65/61/260
s 66
f 34/36/261 48/59/262 65/61/263
f 65/61/263 48/59/262 67/62/264
s 67
f 48/59/265 49/64/266 67/62/267
f 67/62/267 49/64/266 68/63/268
s 68
f 49/64/269 35/37/270 68/63/271
f 68/63/271 35/37/270 66/60/272
s 69
f 37/39/273 36/38/274 70/66/275
f 70/66/275 36/38/274 69/67/276
s 70
f 36/38/277 50/65/278 69/67/279
f 69/67/279 50/65/278 71/68/280
s 71
f 50/65/281 51/70/282 71/68/283
f 71/68/283 51/70/282 72/69/284
s 72
f 51/70/285 37/39/286 72/69/287
f 72/69/287 37/39/286 70/66/288
s 73
f 39/41/289 38/40/290 74/72/291
f 74/72/291 38/40/290 73/73/292
s 74
f 38/40/293 52/71/294 73/73/295
f 73/73/295 52/71/294 75/74/296
s 75
f 52/71/297 53/76/298 75/74/299
f 75/74/299 53/76/298 76/75/300
s 76
f 53/76/301 39/41/302 76/75/303
f 76/75/303 39/41/302 74/72/304
s 77
f 41/43/305 40/42/306 78/78/307
f 78/78/307 40/42/306 77/79/308
s 78
f 40/42/309 54/77/310 77/79/311
f 77/79/311 54/77/310 79/80/312
s 79
f 54/77/313 55/82/314 79/80/315
f 79/80/315 55/82/314 80/81/316
s 80
f 55/82/317 41/43/318 80/81/319
f 80/81/319 41/43/318 78/78/320
s 81
f 29/45/321 42/44/322 82/84/323
f 82/84/323 42/44/322 81/85/324
s 82
f 42/44/325 56/83/326 81/85/327
f 81/85/327 56/83/326 83/86/328
s 83
f 56/83/329 43/102/330 83/86/331
f 83/86/331 43/102/330 84/87/332
s 84
f 43/102/333 29/45/334 84/87/335
f 84/87/335 29/45/334 82/84/336
