# This file uses centimeters as units for non-parametric coordinates.

v 0.951057 0.000000 -0.309017
v 0.809018 0.000000 -0.587786
v 0.587786 0.000000 -0.809017
v 0.309017 0.000000 -0.951057
v 0.000000 0.000000 -1.000000
v -0.309017 0.000000 -0.951057
v -0.587785 0.000000 -0.809017
v -0.809017 0.000000 -0.587785
v -0.951057 0.000000 -0.309017
v -1.000000 0.000000 0.000000
v -0.951057 0.000000 0.309017
v -0.809017 0.000000 0.587785
v -0.587785 0.000000 0.809017
v -0.309017 0.000000 0.951057
v -0.000000 0.000000 1.000000
v 0.309017 0.000000 0.951057
v 0.587785 0.000000 0.809017
v 0.809017 0.000000 0.587785
v 0.951057 0.000000 0.309017
v 1.000000 0.000000 0.000000
v -0.000000 1.000000 -0.000000
v -0.062056 0.905000 -0.190988
v -0.000000 0.905000 -0.200817
v 0.062056 0.905000 -0.190988
v 0.118037 0.905000 -0.162464
v 0.162464 0.905000 -0.118037
v 0.190988 0.905000 -0.062056
v 0.200817 0.905000 -0.000000
v 0.190988 0.905000 0.062056
v 0.162464 0.905000 0.118037
v 0.118037 0.905000 0.162464
v 0.062056 0.905000 0.190988
v -0.000000 0.905000 0.200817
v -0.062056 0.905000 0.190988
v -0.118037 0.905000 0.162464
v -0.162464 0.905000 0.118037
v -0.190988 0.905000 0.062056
v -0.200817 0.905000 -0.000000
v -0.190988 0.905000 -0.062056
v -0.162464 0.905000 -0.118037
v -0.118037 0.905000 -0.162464
v -1.000000 0.000000 -1.000000
v 1.000000 0.000000 -1.000000
v 1.000000 0.000000 1.000000
v -1.000000 0.000000 1.000000
v 0.379638 0.655000 -0.123352
v 0.322940 0.655000 -0.234630
v 0.234629 0.655000 -0.322940
v 0.123352 0.655000 -0.379638
v -0.000000 0.655000 -0.399175
v -0.123352 0.655000 -0.379638
v -0.234629 0.655000 -0.322940
v -0.322940 0.655000 -0.234629
v -0.379638 0.655000 -0.123352
v -0.399175 0.655000 -0.000000
v -0.379638 0.655000 0.123352
v -0.322940 0.655000 0.234629
v -0.234629 0.655000 0.322940
v -0.123352 0.655000 0.379638
v -0.000000 0.655000 0.399175
v 0.123352 0.655000 0.379638
v 0.234629 0.655000 0.322940
v 0.322940 0.655000 0.234629
v 0.379638 0.655000 0.123352
v 0.399175 0.655000 -0.000000
v 0.570011 0.345000 -0.185208
v 0.484881 0.345000 -0.352286
v 0.352286 0.345000 -0.484881
v 0.185208 0.345000 -0.570011
v -0.000000 0.345000 -0.599345
v -0.185208 0.345000 -0.570011
v -0.352286 0.345000 -0.484881
v -0.484881 0.345000 -0.352286
v -0.570011 0.345000 -0.185208
v -0.599345 0.345000 -0.000000
v -0.570011 0.345000 0.185208
v -0.484880 0.345000 0.352286
v -0.352286 0.345000 0.484880
v -0.185208 0.345000 0.570011
v -0.000000 0.345000 0.599345
v 0.185208 0.345000 0.570011
v 0.352286 0.345000 0.484880
v 0.484880 0.345000 0.352286
v 0.570011 0.345000 0.185208
v 0.599345 0.345000 -0.000000
v 0.760539 0.095000 -0.247114
v 0.646953 0.095000 -0.470039
v 0.470039 0.095000 -0.646953
v 0.247114 0.095000 -0.760539
v 0.000000 0.095000 -0.799678
v -0.247114 0.095000 -0.760539
v -0.470039 0.095000 -0.646953
v -0.646953 0.095000 -0.470039
v -0.760539 0.095000 -0.247114
v -0.799678 0.095000 -0.000000
v -0.760539 0.095000 0.247114
v -0.646953 0.095000 0.470039
v -0.470039 0.095000 0.646953
v -0.247114 0.095000 0.760539
v -0.000000 0.095000 0.799678
v 0.247114 0.095000 0.760539
v 0.470039 0.095000 0.646953
v 0.646953 0.095000 0.470039
v 0.760539 0.095000 0.247114
v 0.799677 0.095000 -0.000000
v 0.000000 0.000000 -1.000001
v -1.000000 0.000000 -1.000000
v -1.000000 0.000000 -0.000000
v 1.000000 0.000000 -1.000000
v 1.000000 0.000000 -0.000000
v -0.000000 0.000000 1.000000
v 1.000000 0.000000 1.000000
v -1.000000 0.000000 1.000000
vt 0.648551 0.795513
vt 0.626365 0.751970
vt 0.591810 0.717415
vt 0.548267 0.695229
vt 0.500000 0.687584
vt 0.451733 0.695229
vt 0.408190 0.717415
vt 0.373635 0.751970
vt 0.351449 0.795513
vt 0.343804 0.843780
vt 0.351449 0.892047
vt 0.373635 0.935590
vt 0.408190 0.970145
vt 0.451733 0.992331
vt 0.500000 0.999976
vt 0.548267 0.992331
vt 0.591810 0.970145
vt 0.626365 0.935590
vt 0.648551 0.892047
vt 0.656196 0.843780
vt 0.500000 0.835589
vt 0.490167 0.872342
vt 0.500000 0.873899
vt 0.509833 0.872342
vt 0.518703 0.867823
vt 0.525742 0.860784
vt 0.530261 0.851914
vt 0.531818 0.842082
vt 0.530261 0.832250
vt 0.525741 0.823380
vt 0.518702 0.816341
vt 0.509832 0.811821
vt 0.500000 0.810263
vt 0.490168 0.811820
vt 0.481298 0.816340
vt 0.474259 0.823379
vt 0.469739 0.832249
vt 0.468182 0.842082
vt 0.469739 0.851914
vt 0.474259 0.860784
vt 0.481298 0.867823
vt 0.018363 0.005369
vt 0.987140 -0.003666
vt -0.724405 0.441794
vt 0.003277 0.001329
vt 0.997915 -0.000627
vt 0.632714 0.899117
vt 0.001019 0.000210
vt 0.998980 0.000210
vt 0.499682 0.763572
vt 0.001912 -0.000525
vt 0.997090 0.001113
vt 0.614874 0.752951
vt 0.026783 -0.007974
vt 0.961241 0.011681
vt 0.046244 0.961126
vt 0.001908 0.000523
vt 0.998561 -0.000247
vt -0.293161 0.353876
vt 0.001020 0.000101
vt 0.998981 0.000101
vt 0.500000 0.366548
vt 0.001439 -0.000247
vt 0.998092 0.000523
vt 1.293162 0.353876
vt 0.008524 -0.002324
vt 0.987988 0.003404
vt 2.247002 0.280077
vt 0.012012 0.003404
vt 0.991476 -0.002324
vt -1.247007 0.280076
vt 0.012012 0.003404
vt 0.991476 -0.002324
vt -1.247002 0.280077
vt 0.001908 0.000523
vt 0.998561 -0.000247
vt -0.293162 0.353876
vt 0.001020 0.000101
vt 0.998981 0.000101
vt 0.500000 0.366549
vt 0.001439 -0.000247
vt 0.998092 0.000523
vt 1.293161 0.353876
vt 0.008524 -0.002324
vt 0.987988 0.003404
vt 2.247002 0.280077
vt 0.012012 0.003404
vt 0.991476 -0.002324
vt -1.247002 0.280077
vt 0.001908 0.000523
vt 0.998561 -0.000247
vt -0.293161 0.353876
vt 0.001020 0.000101
vt 0.998981 0.000101
vt 0.500000 0.366548
vt 0.001439 -0.000247
vt 0.998092 0.000523
vt 1.293161 0.353876
vt 0.008524 -0.002324
vt 0.987988 0.003404
vt 2.247002 0.280077
vt 0.560312 0.862916
vt 0.551304 0.880594
vt 0.537275 0.894624
vt 0.519596 0.903631
vt 0.500000 0.906735
vt 0.480404 0.903631
vt 0.462725 0.894624
vt 0.448696 0.880594
vt 0.439688 0.862916
vt 0.436584 0.843319
vt 0.439688 0.823723
vt 0.448696 0.806044
vt 0.462725 0.792015
vt 0.480403 0.783007
vt 0.500000 0.779903
vt 0.519596 0.783007
vt 0.537275 0.792015
vt 0.551304 0.806044
vt 0.560312 0.823722
vt 0.563416 0.843319
vt 0.589890 0.872267
vt 0.576465 0.898615
vt 0.555555 0.919525
vt 0.529207 0.932950
vt 0.500000 0.937576
vt 0.470793 0.932950
vt 0.444445 0.919525
vt 0.423535 0.898615
vt 0.410110 0.872267
vt 0.405484 0.843060
vt 0.410110 0.813853
vt 0.423535 0.787505
vt 0.444445 0.766595
vt 0.470793 0.753170
vt 0.500000 0.748544
vt 0.529207 0.753170
vt 0.555555 0.766595
vt 0.576465 0.787505
vt 0.589890 0.813853
vt 0.594516 0.843060
vt 0.619055 0.882111
vt 0.601274 0.917008
vt 0.573580 0.944702
vt 0.538683 0.962483
vt 0.500000 0.968609
vt 0.461317 0.962483
vt 0.426420 0.944702
vt 0.398726 0.917008
vt 0.380945 0.882111
vt 0.374818 0.843428
vt 0.380945 0.804744
vt 0.398726 0.769848
vt 0.426420 0.742154
vt 0.461317 0.724373
vt 0.500000 0.718246
vt 0.538683 0.724373
vt 0.573580 0.742154
vt 0.601274 0.769848
vt 0.619055 0.804744
vt 0.625182 0.843428
vt 0.000000 0.000000
vt 1.000000 0.000000
vt 1.000000 1.000000
vt 0.000000 1.000000
vt 0.000000 0.000000
vt 1.000000 0.000000
vt 1.000000 1.000000
vt 0.000000 1.000000
vt 0.000000 0.000000
vt 1.000000 0.000000
vt 1.000000 1.000000
vt 0.000000 1.000000
vt 0.000000 0.000000
vt 1.000000 0.000000
vt 1.000000 1.000000
vt 0.000000 1.000000
vt 0.000000 0.000000
vt 1.000000 0.000000
vt 1.000000 1.000000
vt 0.000000 1.000000
vt 0.000000 0.000000
vt 1.000000 0.000000
vt 1.000000 1.000000
vt 0.000000 1.000000
vt 0.000000 0.000000
vt 1.000000 0.000000
vt 1.000000 1.000000
vt 0.000000 1.000000
vt 0.000000 0.000000
vt 1.000000 0.000000
vt 1.000000 1.000000
vt 0.000000 1.000000
vn 0.775559 0.575499 -0.259440
vn 0.657429 0.575499 -0.486404
vn 0.639656 0.737473 -0.216735
vn 0.541374 0.737473 -0.403793
vn 0.474945 0.575499 -0.665754
vn 0.390098 0.737473 -0.551324
vn 0.245970 0.575499 -0.779936
vn 0.200637 0.737473 -0.644887
vn -0.007082 0.575499 -0.817772
vn -0.008464 0.737472 -0.675324
vn -0.259440 0.575499 -0.775559
vn -0.216736 0.737472 -0.639656
vn -0.486403 0.575498 -0.657429
vn -0.403793 0.737473 -0.541374
vn -0.665754 0.575498 -0.474945
vn -0.551324 0.737473 -0.390097
vn -0.779936 0.575499 -0.245970
vn -0.644887 0.737473 -0.200636
vn -0.817772 0.575499 0.007082
vn -0.675324 0.737472 0.008464
vn -0.775559 0.575499 0.259441
vn -0.639656 0.737472 0.216736
vn -0.657429 0.575499 0.486404
vn -0.541374 0.737473 0.403792
vn -0.474945 0.575499 0.665754
vn -0.390098 0.737473 0.551324
vn -0.245970 0.575498 0.779936
vn -0.200636 0.737472 0.644887
vn 0.007082 0.575499 0.817772
vn 0.008464 0.737473 0.675324
vn 0.259441 0.575499 0.775559
vn 0.216736 0.737473 0.639656
vn 0.486404 0.575499 0.657429
vn 0.403793 0.737472 0.541374
vn 0.665754 0.575499 0.474945
vn 0.551324 0.737472 0.390099
vn 0.779936 0.575499 0.245970
vn 0.644887 0.737473 0.200636
vn 0.817772 0.575499 -0.007081
vn 0.675324 0.737472 -0.008464
vn -0.000000 1.000000 0.000000
vn -0.062937 0.977814 -0.199797
vn 0.003584 0.917212 -0.398384
vn 0.000000 1.000000 0.000000
vn -0.078708 0.990765 -0.110408
vn 0.000000 1.000000 -0.000001
vn -0.108974 0.990765 -0.080682
vn 0.000000 1.000000 0.000000
vn -0.198632 0.977814 -0.066521
vn 0.000000 1.000000 0.000000
vn -0.398384 0.917212 -0.003584
vn 0.000000 1.000000 0.000000
vn 0.110408 0.990765 -0.078708
vn 0.199798 0.977814 -0.062937
vn 0.000000 1.000000 0.000000
vn 0.080682 0.990765 -0.108974
vn 0.000000 1.000000 0.000000
vn 0.066521 0.977814 -0.198633
vn 0.000000 1.000000 0.000000
vn 0.000000 1.000000 0.000000
vn 0.398384 0.917212 0.003584
vn 0.000000 1.000000 0.000000
vn 0.062937 0.977814 0.199798
vn -0.003584 0.917212 0.398383
vn 0.000000 1.000000 0.000002
vn 0.078708 0.990765 0.110407
vn 0.000000 1.000000 -0.000001
vn 0.108974 0.990765 0.080682
vn 0.000000 1.000000 0.000000
vn 0.198632 0.977814 0.066521
vn 0.000000 1.000000 0.000000
vn 0.000000 1.000000 0.000000
vn -0.199797 0.977814 0.062936
vn 0.000000 1.000000 0.000000
vn -0.110408 0.990765 0.078708
vn 0.000000 1.000000 0.000000
vn -0.080682 0.990765 0.108974
vn 0.000000 1.000000 0.000000
vn -0.066521 0.977814 0.198632
vn 0.000000 1.000000 0.000000
vn 0.000000 1.000000 0.000000
vn 0.768409 0.586271 -0.256582
vn 0.651512 0.586271 -0.481476
vn 0.470840 0.586271 -0.659239
vn 0.244079 0.586271 -0.772471
vn -0.006573 0.586271 -0.810088
vn -0.256582 0.586271 -0.768408
vn -0.481476 0.586271 -0.651511
vn -0.659239 0.586271 -0.470840
vn -0.772471 0.586271 -0.244080
vn -0.810088 0.586271 0.006573
vn -0.768409 0.586271 0.256582
vn -0.651512 0.586271 0.481476
vn -0.470840 0.586271 0.659239
vn -0.244080 0.586271 0.772471
vn 0.006573 0.586271 0.810088
vn 0.256582 0.586271 0.768409
vn 0.481475 0.586271 0.651512
vn 0.659239 0.586271 0.470840
vn 0.772471 0.586271 0.244080
vn 0.810088 0.586271 -0.006572
vn 0.598175 0.777277 -0.195008
vn 0.508637 0.777277 -0.370310
vn 0.369310 0.777277 -0.509363
vn 0.193833 0.777277 -0.598556
vn -0.000618 0.777277 -0.629159
vn -0.195008 0.777277 -0.598175
vn -0.370310 0.777276 -0.508637
vn -0.509363 0.777277 -0.369310
vn -0.598556 0.777277 -0.193833
vn -0.629159 0.777277 0.000618
vn -0.598175 0.777277 0.195008
vn -0.508637 0.777277 0.370310
vn -0.369311 0.777276 0.509363
vn -0.193833 0.777276 0.598557
vn 0.000618 0.777277 0.629159
vn 0.195008 0.777276 0.598175
vn 0.370310 0.777276 0.508637
vn 0.509363 0.777276 0.369311
vn 0.598556 0.777277 0.193833
vn 0.629159 0.777276 -0.000617
vn 0.000000 0.000000 0.000000
vn 0.000000 1.000000 0.000000
vn 0.000000 1.000000 0.000000
vn 0.000000 0.000000 0.000000
vn 0.000000 0.000000 0.000000
vn 0.000000 0.000000 0.000000
vn 0.000000 0.000000 0.000000
vn 0.000000 0.000000 0.000000
vn 0.000000 1.000000 0.000000
vn 0.000000 0.000000 0.000000
vn 0.000000 1.000000 0.000000
vn 0.000000 1.000000 0.000000
vn 0.000000 -1.000000 0.000000
vn 0.000000 -1.000000 0.000000
vn 0.000000 -1.000000 0.000000
vn 0.000000 -1.000000 0.000000
vn 0.000000 0.447214 -0.894427
vn 0.000000 0.447214 -0.894427
vn 0.000000 0.447213 -0.894427
vn 0.000000 0.447213 -0.894427
vn 0.000000 -1.000000 0.000000
vn 0.000000 -1.000000 0.000000
vn 0.000000 -1.000000 0.000000
vn 0.000000 -1.000000 0.000000
vn 0.000000 -0.000000 0.000000
vn 0.000000 -0.000000 0.000000
vn 0.000000 -0.000000 0.000000
vn 0.000000 -0.000000 0.000000
vn 0.000000 0.447214 0.894427
vn 0.000000 0.447214 0.894427
vn 0.000000 0.447214 0.894427
vn 0.000000 0.447214 0.894427
s 1
f 46/102/1 47/103/2 27/27/3
f 27/27/3 47/103/2 26/26/4
f 47/103/2 48/104/5 26/26/4
f 26/26/4 48/104/5 25/25/6
f 48/104/5 49/105/7 25/25/6
f 25/25/6 49/105/7 24/24/8
f 49/105/7 50/106/9 24/24/8
f 24/24/8 50/106/9 23/23/10
f 50/106/9 51/107/11 23/23/10
f 23/23/10 51/107/11 22/22/12
f 51/107/11 52/108/13 22/22/12
f 22/22/12 52/108/13 41/41/14
f 52/108/13 53/109/15 41/41/14
f 41/41/14 53/109/15 40/40/16
f 53/109/15 54/110/17 40/40/16
f 40/40/16 54/110/17 39/39/18
f 54/110/17 55/111/19 39/39/18
f 39/39/18 55/111/19 38/38/20
f 55/111/19 56/112/21 38/38/20
f 38/38/20 56/112/21 37/37/22
f 56/112/21 57/113/23 37/37/22
f 37/37/22 57/113/23 36/36/24
f 57/113/23 58/114/25 36/36/24
f 36/36/24 58/114/25 35/35/26
f 58/114/25 59/115/27 35/35/26
f 35/35/26 59/115/27 34/34/28
f 59/115/27 60/116/29 34/34/28
f 34/34/28 60/116/29 33/33/30
f 60/116/29 61/117/31 33/33/30
f 33/33/30 61/117/31 32/32/32
f 61/117/31 62/118/33 32/32/32
f 32/32/32 62/118/33 31/31/34
f 62/118/33 63/119/35 31/31/34
f 31/31/34 63/119/35 30/30/36
f 63/119/35 64/120/37 30/30/36
f 30/30/36 64/120/37 29/29/38
f 64/120/37 65/121/39 29/29/38
f 29/29/38 65/121/39 28/28/40
f 65/121/39 46/102/1 28/28/40
f 28/28/40 46/102/1 27/27/3
f 23/23/10 22/22/12 21/21/41
f 24/24/8 23/23/10 21/21/41
f 25/25/6 24/24/8 21/21/41
f 26/26/4 25/25/6 21/21/41
f 27/27/3 26/26/4 21/21/41
f 28/28/40 27/27/3 21/21/41
f 29/29/38 28/28/40 21/21/41
f 30/30/36 29/29/38 21/21/41
f 31/31/34 30/30/36 21/21/41
f 32/32/32 31/31/34 21/21/41
f 33/33/30 32/32/32 21/21/41
f 34/34/28 33/33/30 21/21/41
f 35/35/26 34/34/28 21/21/41
f 36/36/24 35/35/26 21/21/41
f 37/37/22 36/36/24 21/21/41
f 38/38/20 37/37/22 21/21/41
f 39/39/18 38/38/20 21/21/41
f 40/40/16 39/39/18 21/21/41
f 41/41/14 40/40/16 21/21/41
f 22/22/12 41/41/14 21/21/41
f 6/42/42 5/43/43 42/44/44
f 7/45/45 6/46/42 42/47/46
f 8/48/47 7/49/45 42/50/48
f 9/51/49 8/52/47 42/53/50
f 10/54/51 9/55/49 42/56/52
f 2/57/53 1/58/54 43/59/55
f 3/60/56 2/61/53 43/62/57
f 4/63/58 3/64/56 43/65/59
f 5/66/43 4/67/58 43/68/60
f 1/69/54 20/70/61 43/71/62
f 16/72/63 15/73/64 44/74/65
f 17/75/66 16/76/63 44/77/67
f 18/78/68 17/79/66 44/80/69
f 19/81/70 18/82/68 44/83/71
f 20/84/61 19/85/70 44/86/72
f 11/87/73 10/88/51 45/89/74
f 12/90/75 11/91/73 45/92/76
f 13/93/77 12/94/75 45/95/78
f 14/96/79 13/97/77 45/98/80
f 15/99/64 14/100/79 45/101/81
f 66/122/82 67/123/83 46/102/1
f 46/102/1 67/123/83 47/103/2
f 67/123/83 68/124/84 47/103/2
f 47/103/2 68/124/84 48/104/5
f 68/124/84 69/125/85 48/104/5
f 48/104/5 69/125/85 49/105/7
f 69/125/85 70/126/86 49/105/7
f 49/105/7 70/126/86 50/106/9
f 70/126/86 71/127/87 50/106/9
f 50/106/9 71/127/87 51/107/11
f 71/127/87 72/128/88 51/107/11
f 51/107/11 72/128/88 52/108/13
f 72/128/88 73/129/89 52/108/13
f 52/108/13 73/129/89 53/109/15
f 73/129/89 74/130/90 53/109/15
f 53/109/15 74/130/90 54/110/17
f 74/130/90 75/131/91 54/110/17
f 54/110/17 75/131/91 55/111/19
f 75/131/91 76/132/92 55/111/19
f 55/111/19 76/132/92 56/112/21
f 76/132/92 77/133/93 56/112/21
f 56/112/21 77/133/93 57/113/23
f 77/133/93 78/134/94 57/113/23
f 57/113/23 78/134/94 58/114/25
f 78/134/94 79/135/95 58/114/25
f 58/114/25 79/135/95 59/115/27
f 79/135/95 80/136/96 59/115/27
f 59/115/27 80/136/96 60/116/29
f 80/136/96 81/137/97 60/116/29
f 60/116/29 81/137/97 61/117/31
f 81/137/97 82/138/98 61/117/31
f 61/117/31 82/138/98 62/118/33
f 82/138/98 83/139/99 62/118/33
f 62/118/33 83/139/99 63/119/35
f 83/139/99 84/140/100 63/119/35
f 63/119/35 84/140/100 64/120/37
f 84/140/100 85/141/101 64/120/37
f 64/120/37 85/141/101 65/121/39
f 85/141/101 66/122/82 65/121/39
f 65/121/39 66/122/82 46/102/1
f 86/142/102 87/143/103 66/122/82
f 66/122/82 87/143/103 67/123/83
f 87/143/103 88/144/104 67/123/83
f 67/123/83 88/144/104 68/124/84
f 88/144/104 89/145/105 68/124/84
f 68/124/84 89/145/105 69/125/85
f 89/145/105 90/146/106 69/125/85
f 69/125/85 90/146/106 70/126/86
f 90/146/106 91/147/107 70/126/86
f 70/126/86 91/147/107 71/127/87
f 91/147/107 92/148/108 71/127/87
f 71/127/87 92/148/108 72/128/88
f 92/148/108 93/149/109 72/128/88
f 72/128/88 93/149/109 73/129/89
f 93/149/109 94/150/110 73/129/89
f 73/129/89 94/150/110 74/130/90
f 94/150/110 95/151/111 74/130/90
f 74/130/90 95/151/111 75/131/91
f 95/151/111 96/152/112 75/131/91
f 75/131/91 96/152/112 76/132/92
f 96/152/112 97/153/113 76/132/92
f 76/132/92 97/153/113 77/133/93
f 97/153/113 98/154/114 77/133/93
f 77/133/93 98/154/114 78/134/94
f 98/154/114 99/155/115 78/134/94
f 78/134/94 99/155/115 79/135/95
f 99/155/115 100/156/116 79/135/95
f 79/135/95 100/156/116 80/136/96
f 100/156/116 101/157/117 80/136/96
f 80/136/96 101/157/117 81/137/97
f 101/157/117 102/158/118 81/137/97
f 81/137/97 102/158/118 82/138/98
f 102/158/118 103/159/119 82/138/98
f 82/138/98 103/159/119 83/139/99
f 103/159/119 104/160/120 83/139/99
f 83/139/99 104/160/120 84/140/100
f 104/160/120 105/161/121 84/140/100
f 84/140/100 105/161/121 85/141/101
f 105/161/121 86/142/102 85/141/101
f 85/141/101 86/142/102 66/122/82
f 2/18/53 87/143/103 1/19/54
f 1/19/54 87/143/103 86/142/102
f 3/17/56 88/144/104 2/18/53
f 2/18/53 88/144/104 87/143/103
f 4/16/58 89/145/105 3/17/56
f 3/17/56 89/145/105 88/144/104
f 5/15/43 90/146/106 4/16/58
f 4/16/58 90/146/106 89/145/105
f 6/14/42 91/147/107 5/15/43
f 5/15/43 91/147/107 90/146/106
f 7/13/45 92/148/108 6/14/42
f 6/14/42 92/148/108 91/147/107
f 8/12/47 93/149/109 7/13/45
f 7/13/45 93/149/109 92/148/108
f 9/11/49 94/150/110 8/12/47
f 8/12/47 94/150/110 93/149/109
f 10/10/51 95/151/111 9/11/49
f 9/11/49 95/151/111 94/150/110
f 11/9/73 96/152/112 10/10/51
f 10/10/51 96/152/112 95/151/111
f 12/8/75 97/153/113 11/9/73
f 11/9/73 97/153/113 96/152/112
f 13/7/77 98/154/114 12/8/75
f 12/8/75 98/154/114 97/153/113
f 14/6/79 99/155/115 13/7/77
f 13/7/77 99/155/115 98/154/114
f 15/5/64 100/156/116 14/6/79
f 14/6/79 100/156/116 99/155/115
f 16/4/63 101/157/117 15/5/64
f 15/5/64 101/157/117 100/156/116
f 17/3/66 102/158/118 16/4/63
f 16/4/63 102/158/118 101/157/117
f 18/2/68 103/159/119 17/3/66
f 17/3/66 103/159/119 102/158/118
f 19/1/70 104/160/120 18/2/68
f 18/2/68 104/160/120 103/159/119
f 20/20/61 105/161/121 19/1/70
f 19/1/70 105/161/121 104/160/120
f 1/19/54 86/142/102 20/20/61
f 20/20/61 86/142/102 105/161/121
s off
f 42/162/122 5/163/123 106/164/124 107/165/125
f 10/166/126 42/167/127 107/168/128 108/169/129
f 5/170/130 43/171/131 109/172/132 106/173/133
f 43/174/134 20/175/135 110/176/136 109/177/137
f 44/178/138 15/179/139 111/180/140 112/181/141
f 20/182/142 44/183/143 112/184/144 110/185/145
f 45/186/146 10/187/147 108/188/148 113/189/149
f 15/190/150 45/191/151 113/192/152 111/193/153
