# This file uses centimeters as units for non-parametric coordinates.

v -1.137048 2.000000 0.995000
v 0.000000 2.000000 0.995000
v 1.137048 2.000000 0.995000
v -1.137048 2.000000 -0.995000
v 0.000000 2.000000 -0.995000
v 1.137048 2.000000 -0.995000
v 0.000000 2.693314 0.995000
v 0.000000 2.693314 -0.995000
vt 0.000000 0.000000
vt 0.500000 0.000000
vt 1.000000 0.000000
vt 0.000000 1.000000
vt 0.500000 1.000000
vt 1.000000 1.000000
vt 1.000000 1.000000
vt 0.000000 1.000000
vn 0.000000 -1.000000 0.000000
vn 0.000000 -1.000000 0.000000
vn 0.000000 -1.000000 0.000000
vn 0.000000 -1.000000 0.000000
vn 0.000000 -1.000000 0.000000
vn 0.000000 -1.000000 0.000000
vn 0.000000 -1.000000 0.000000
vn 0.000000 -1.000000 0.000000
vn 0.520603 0.853799 0.000000
vn 0.520603 0.853799 0.000000
vn 0.520603 0.853799 0.000000
vn 0.520603 0.853799 0.000000
vn -0.520603 0.853799 0.000000
vn -0.520603 0.853799 0.000000
vn -0.520603 0.853799 0.000000
vn -0.520603 0.853799 0.000000
vn 0.000000 0.000000 -1.000000
vn 0.000000 0.000000 -1.000000
vn 0.000000 0.000000 -1.000000
vn 0.000000 0.000000 -1.000000
vn 0.000000 0.000000 1.000000
vn 0.000000 0.000000 1.000000
vn 0.000000 0.000000 1.000000
vn 0.000000 0.000000 1.000000
s 1
f 1/1/1 4/4/2 2/2/3
f 2/2/3 4/4/2 5/5/4
s 2
f 2/2/5 5/5/6 3/3/7
f 3/3/7 5/5/6 6/6/8
s 3
f 6/6/9 8/7/10 3/3/11
f 3/3/11 8/7/10 7/8/12
s 4
f 1/1/13 7/8/14 4/4/15
f 4/4/15 7/8/14 8/7/16
s 5
f 5/5/17 4/4/18 8/7/19
f 5/5/17 8/7/19 6/6/20
s 6
f 2/2/21 3/3/22 7/8/23
f 2/2/21 7/8/23 1/1/24
