# This file uses centimeters as units for non-parametric coordinates.

v 0.242705 0.000000 -0.176336
v 0.092705 0.000000 -0.285317
v -0.092705 0.000000 -0.285317
v -0.242705 0.000000 -0.176336
v -0.300000 0.000000 0.000000
v -0.242705 0.000000 0.176336
v -0.092705 0.000000 0.285317
v 0.092705 0.000000 0.285317
v 0.242705 0.000000 0.176336
v 0.300000 0.000000 0.000000
v 0.242705 2.518457 -0.176336
v 0.092705 2.518457 -0.285317
v -0.092705 2.518457 -0.285317
v -0.242705 2.518457 -0.176336
v -0.300000 2.518457 0.000000
v -0.242705 2.518457 0.176336
v -0.092705 2.518457 0.285317
v 0.092705 2.518457 0.285317
v 0.242705 2.518457 0.176336
v 0.300000 2.518457 0.000000
v 0.000000 0.000000 0.000000
v 0.375121 2.518457 -0.272542
v 0.143284 2.518457 -0.440982
v 0.000000 3.251002 0.000000
v -0.143284 2.518457 -0.440981
v -0.375121 2.518457 -0.272542
v -0.463675 2.518457 0.000000
v -0.375121 2.518457 0.272542
v -0.143284 2.518457 0.440982
v 0.143284 2.518457 0.440981
v 0.375121 2.518457 0.272542
v 0.463675 2.518457 0.000000
vt 0.626409 0.064409
vt 0.548284 0.007647
vt 0.451716 0.007647
vt 0.373591 0.064409
vt 0.343750 0.156250
vt 0.373591 0.248091
vt 0.451716 0.304853
vt 0.548284 0.304853
vt 0.626409 0.248091
vt 0.656250 0.156250
vt 0.375000 0.312500
vt 0.400000 0.312500
vt 0.425000 0.312500
vt 0.450000 0.312500
vt 0.475000 0.312500
vt 0.500000 0.312500
vt 0.525000 0.312500
vt 0.550000 0.312500
vt 0.575000 0.312500
vt 0.600000 0.312500
vt 0.625000 0.312500
vt 0.375001 0.785890
vt 0.399999 0.785891
vt 0.424999 0.785891
vt 0.449999 0.785891
vt 0.474999 0.785891
vt 0.499999 0.785891
vt 0.524999 0.785891
vt 0.549999 0.785891
vt 0.574999 0.785891
vt 0.599999 0.785891
vt 0.624992 0.785880
vt 0.626404 0.752483
vt 0.548282 0.695723
vt 0.451718 0.695723
vt 0.373596 0.752483
vt 0.343756 0.844321
vt 0.373596 0.936159
vt 0.451718 0.992918
vt 0.548282 0.992918
vt 0.626404 0.936159
vt 0.656245 0.844321
vt 0.500000 0.150000
vt 0.500000 0.845116
vt 0.695362 0.987977
vt 0.574622 1.075700
vt 0.425378 1.075700
vt 0.304638 0.987977
vt 0.258519 0.846038
vt 0.304638 0.704099
vt 0.425378 0.616376
vt 0.574622 0.616376
vt 0.695362 0.704099
vt 0.741481 0.846038
vn 0.809017 0.000000 -0.587785
vn 0.309017 0.000000 -0.951057
vn 0.809017 0.000000 -0.587785
vn 0.309017 0.000000 -0.951057
vn -0.309017 0.000000 -0.951057
vn -0.309017 0.000000 -0.951057
vn -0.809017 0.000000 -0.587785
vn -0.809017 0.000000 -0.587785
vn -1.000000 0.000000 0.000000
vn -1.000000 0.000000 0.000000
vn -0.809017 0.000000 0.587785
vn -0.809017 0.000000 0.587785
vn -0.309017 0.000000 0.951057
vn -0.309017 0.000000 0.951057
vn 0.309017 0.000000 0.951057
vn 0.309017 0.000000 0.951057
vn 0.809017 0.000000 0.587785
vn 0.809017 0.000000 0.587785
vn 1.000000 0.000000 0.000000
vn 1.000000 0.000000 0.000000
vn 0.000000 -1.000000 0.000000
vn 0.000000 -1.000000 0.000000
vn 0.000000 -1.000000 0.000000
vn 0.000000 -1.000000 0.000000
vn 0.000000 -1.000000 0.000000
vn 0.000000 -1.000000 0.000000
vn 0.000000 -1.000000 -0.000000
vn 0.000000 -1.000000 -0.000000
vn 0.000000 -1.000000 0.000000
vn 0.000000 -1.000000 0.000000
vn 0.000000 -1.000000 0.000000
vn 0.683587 0.534830 -0.496655
vn 0.261107 0.534830 -0.803604
vn -0.000000 1.000000 0.000000
vn -0.261107 0.534830 -0.803604
vn -0.683587 0.534830 -0.496655
vn -0.844960 0.534830 -0.000000
vn -0.683587 0.534830 0.496655
vn -0.261107 0.534830 0.803605
vn 0.261107 0.534830 0.803604
vn 0.683587 0.534830 0.496655
vn 0.844960 0.534830 0.000000
vn 0.000000 -1.000000 0.000000
vn 0.000000 -1.000000 0.000000
vn 0.000000 -1.000000 0.000000
vn 0.000000 -1.000000 0.000000
vn 0.000000 -1.000000 0.000002
vn 0.000000 -1.000000 -0.000001
vn 0.000000 -1.000000 0.000000
vn 0.000000 -1.000000 -0.000002
vn 0.000000 -1.000000 -0.000001
vn 0.000000 -1.000000 -0.000000
vn 0.000000 -1.000000 -0.000001
vn 0.000000 -1.000000 0.000000
vn 0.000000 -1.000000 0.000000
vn 0.000000 -1.000000 0.000000
vn 0.000000 -1.000000 0.000000
vn 0.000000 -1.000000 0.000000
vn 0.000000 -1.000000 0.000000
vn 0.000000 -1.000000 -0.000000
vn 0.000000 -1.000000 -0.000000
vn 0.000000 -1.000000 -0.000000
vn 0.000000 -1.000000 0.000000
vn 0.000000 -1.000000 0.000000
vn 0.000000 -1.000000 0.000000
vn 0.000000 -1.000000 0.000000
vn 0.000000 -1.000000 0.000002
vn 0.000000 -1.000000 -0.000001
vn 0.000000 -1.000000 -0.000000
vn 0.000000 -1.000000 -0.000002
vn 0.000000 -1.000000 0.000000
vn 0.000000 -1.000000 0.000000
vn 0.000000 -1.000000 0.000000
vn 0.000000 -1.000000 0.000000
vn 0.000000 -1.000000 0.000001
vn 0.000000 -1.000000 0.000001
vn 0.000000 -1.000000 0.000001
vn 0.000000 -1.000000 0.000000
vn 0.000000 -1.000000 -0.000001
vn 0.000000 -1.000000 0.000000
vn 0.000000 -1.000000 -0.000000
vn 0.000000 -1.000000 0.000000
s 1
f 1/11/1 2/12/2 11/22/3
f 11/22/3 2/12/2 12/23/4
f 2/12/2 3/13/5 12/23/4
f 12/23/4 3/13/5 13/24/6
f 3/13/5 4/14/7 13/24/6
f 13/24/6 4/14/7 14/25/8
f 4/14/7 5/15/9 14/25/8
f 14/25/8 5/15/9 15/26/10
f 5/15/9 6/16/11 15/26/10
f 15/26/10 6/16/11 16/27/12
f 6/16/11 7/17/13 16/27/12
f 16/27/12 7/17/13 17/28/14
f 7/17/13 8/18/15 17/28/14
f 17/28/14 8/18/15 18/29/16
f 8/18/15 9/19/17 18/29/16
f 18/29/16 9/19/17 19/30/18
f 9/19/17 10/20/19 19/30/18
f 19/30/18 10/20/19 20/31/20
f 10/20/19 1/21/1 20/31/20
f 20/31/20 1/21/1 11/32/3
s 2
f 2/2/21 1/1/22 21/43/23
f 3/3/24 2/2/21 21/43/23
f 4/4/25 3/3/24 21/43/23
f 5/5/26 4/4/25 21/43/23
f 6/6/27 5/5/26 21/43/23
f 7/7/28 6/6/27 21/43/23
f 8/8/29 7/7/28 21/43/23
f 9/9/30 8/8/29 21/43/23
f 10/10/31 9/9/30 21/43/23
f 1/1/22 10/10/31 21/43/23
s 3
f 22/45/32 23/46/33 24/44/34
f 23/46/33 25/47/35 24/44/34
f 25/47/35 26/48/36 24/44/34
f 26/48/36 27/49/37 24/44/34
f 27/49/37 28/50/38 24/44/34
f 28/50/38 29/51/39 24/44/34
f 29/51/39 30/52/40 24/44/34
f 30/52/40 31/53/41 24/44/34
f 31/53/41 32/54/42 24/44/34
f 32/54/42 22/45/32 24/44/34
s 4
f 11/41/43 12/40/44 22/45/45
f 22/45/45 12/40/44 23/46/46
s 5
f 12/40/47 13/39/48 23/46/49
f 23/46/49 13/39/48 25/47/50
s 6
f 13/39/51 14/38/52 25/47/53
f 25/47/53 14/38/52 26/48/54
s 7
f 14/38/55 15/37/56 26/48/57
f 26/48/57 15/37/56 27/49/58
s 8
f 15/37/59 16/36/60 27/49/61
f 27/49/61 16/36/60 28/50/62
s 9
f 16/36/63 17/35/64 28/50/65
f 28/50/65 17/35/64 29/51/66
s 10
f 17/35/67 18/34/68 29/51/69
f 29/51/69 18/34/68 30/52/70
s 11
f 18/34/71 19/33/72 30/52/73
f 30/52/73 19/33/72 31/53/74
s 12
f 19/33/75 20/42/76 31/53/77
f 31/53/77 20/42/76 32/54/78
s 13
f 20/42/79 11/41/80 32/54/81
f 32/54/81 11/41/80 22/45/82
